<?xml version="1.0" encoding="utf-8"?>
<!-- Generator: Adobe Illustrator 23.1.0, SVG Export Plug-In . SVG Version: 6.00 Build 0)  -->
<svg version="1.1" id="Livello_1" xmlns="http://www.w3.org/2000/svg" xmlns:xlink="http://www.w3.org/1999/xlink" x="0px" y="0px"
	 viewBox="0 0 800 800" style="enable-background:new 0 0 800 800;" xml:space="preserve">
<style type="text/css">
	.st0{fill:#F0A841;}
	.st1{fill:#FED62E;}
	.st2{fill:#373636;}
	.st3{fill:#FFFFFF;}
	.st4{fill:#FFFEDF;}
	.st5{fill:#FA7F5B;}
	.st6{fill:#FED493;}
</style>
<g>
	<g id="faccia_cane">
		<path class="st0" d="M687.5,341.5c0,161.5-142.7,267.7-251.1,283.8c-10.7,1.6-18.6,1.9-21.8,2C296.4,631,115.8,525.1,115.8,341.5
			C115.7,187.1,243.4,55.7,401.6,55.7C559.5,55.7,687.5,183.7,687.5,341.5z"/>
		<path class="st1" d="M694,324.4c0,161.5-142.7,267.7-251.1,283.8c-10.7,1.6-18.6,1.9-21.8,2C303,613.9,122.5,508,122.4,324.4
			C122.3,170,249.9,38.5,408.2,38.5C566,38.5,694,166.5,694,324.4z"/>
		<path class="st0" d="M613.4,317.5c2.2,90.5-63.7,169.5-142.6,191.4C351.1,542.1,207.9,442,208.9,317.5c0.9-98,91-192,202.2-192
			C518.4,125.6,610.9,213.1,613.4,317.5z"/>
		<path class="st2" d="M476.2,177.8c2.5,6.8,9.8,9.4,15.2,13.5c40.5,31.4,70.8,69.3,91.4,113.8c5.2,11.3,7.6,23.5,14,34.4
			c0.1-0.1,0.3-0.2,0.4-0.2c0.2-0.1,0.2-0.2,0.2-0.3c0.6-0.8,44.4-40.8,69-94.4c5.1-11.1,15.4-34,19-65.4c5.1-44.3-8.4-58.7-7.2-91
			c0.1-1.7,0.3-6-2.4-9.7c-6.1-8.6-22.6-7-35.8-4.8c-39.6,6.7-78,13.2-117.1,46.4C510.4,130.8,491.9,149.3,476.2,177.8z"/>
		<path class="st2" d="M324.9,183.7c-2.5,6.8-9.8,9.4-15.2,13.5c-40.5,31.4-70.8,69.3-91.4,113.8c-5.2,11.3-7.6,23.5-14,34.4
			c-0.1-0.1-0.3-0.2-0.4-0.2c-0.2-0.1-0.2-0.2-0.2-0.3c-0.6-0.8-44.4-40.8-69-94.4c-5.1-11.1-15.4-34-19-65.4
			c-5.1-44.3,8.4-58.7,7.2-91c-0.1-1.7-0.3-6,2.4-9.7c6.1-8.6,22.6-7,35.8-4.8c39.6,6.7,78,13.2,117.1,46.4
			C290.7,136.8,309.3,155.2,324.9,183.7z"/>
		<path class="st1" d="M316,196.6c-2,5.8-7.7,8-11.9,11.5c-31.9,26.7-55.8,59-72,96.9c-4.1,9.6-6,20-11,29.3
			c-0.2-0.1-0.5-0.3-0.5-0.4c-2.1-16.2-11.5-28.5-21-41.4c-19.5-26.5-28.2-57.6-34.5-89.2c-5.5-27.4-7.4-55.1-8.1-83
			c-0.2-8.9,2.2-10.7,11-8.9C227.1,123.6,276.5,151.9,316,196.6z"/>
		<path class="st1" d="M499.5,192.7c1.9,5.8,7.7,8,11.9,11.6c31.7,26.9,55.4,59.3,71.4,97.3c4.1,9.7,5.9,20,10.8,29.3
			c0.2-0.1,0.5-0.3,0.5-0.4c2.2-16.2,11.6-28.4,21.2-41.3c19.6-26.4,28.5-57.4,35-89c5.7-27.3,7.8-55.1,8.6-82.9
			c0.3-8.9-2.1-10.8-11-9C588.8,120.2,539.3,148.2,499.5,192.7z"/>
		<path class="st3" d="M492.3,207.1c1.8,5.1,7.2,7,11.1,10.1c29.6,23.4,51.8,51.5,66.9,84.6c3.8,8.4,5.6,17.5,10.2,25.6
			c0.2-0.1,0.5-0.2,0.5-0.4c2-14.1,10.7-24.9,19.5-36.2c18.1-23.2,26.2-50.3,32.1-77.9c5.1-23.9,6.9-48.2,7.6-72.5
			c0.2-7.8-2-9.4-10.2-7.8C574.8,143.3,529,168.1,492.3,207.1z"/>
		<path class="st3" d="M325.9,213.5c-1.8,5.1-7.2,7-11.1,10.1c-29.6,23.4-51.8,51.5-66.9,84.6c-3.8,8.4-5.6,17.5-10.2,25.6
			c-0.2-0.1-0.5-0.2-0.5-0.4c-2-14.1-10.7-24.9-19.5-36.2c-18.1-23.2-26.2-50.3-32.1-77.9c-5.1-23.9-6.9-48.2-7.6-72.5
			c-0.2-7.8,2-9.4,10.2-7.8C243.4,149.6,289.3,174.4,325.9,213.5z"/>
		<ellipse class="st2" cx="406.1" cy="332.8" rx="202.2" ry="192"/>
		<circle class="st1" cx="295.6" cy="368.4" r="71.7"/>
		<circle class="st2" cx="297.3" cy="363.3" r="56.8"/>
		<circle class="st1" cx="549.7" cy="364.7" r="71.7"/>
		<circle class="st2" cx="551.4" cy="359.6" r="56.8"/>
		<circle class="st4" cx="566.5" cy="333" r="17"/>
		
			<ellipse transform="matrix(0.1602 -0.9871 0.9871 0.1602 36.2364 848.3907)" class="st4" cx="516.7" cy="402.9" rx="9.9" ry="9.9"/>
		<path class="st5" d="M396.7,537.6c3.7,6.2,15.5,25.9,36.9,25.9c15.3,0,29.8-10.3,36.8-25.8c1.5-5.2,6.1-22.6-2.9-36
			c-16.5-24.5-67.6-20.1-77.9,0.6C383.1,515.2,393.6,532.5,396.7,537.6z"/>
		<path class="st3" d="M513.2,466.1c3.2,19.8-4.6,40.2-18.1,53.5c-10.9,10.8-22.9,14.3-33.3,17.2c-9.2,2.6-55.9,15.6-92-12.9
			c-5.4-4.2-28.1-22.2-29.2-49.7c-0.6-14.8,5.4-26.3,9.1-33.4c13-24.4,27.7-24.5,39.8-40.2c28.9-37.6-0.8-108,18.1-133.9
			c1.7-2.4,6.6-9,13.3-9.1c6.5-0.1,11.5,6.1,13.3,8.3c20.4,25.3-2.1,98.5,30.7,135.1c10,11.2,22.8,16.3,36.6,38.3
			C506.9,447.7,511.4,455.2,513.2,466.1z"/>
		<path class="st6" d="M417.5,277.1"/>
		<path class="st2" d="M428.5,483.2c-9.3-2.1-16.9-7.2-17.4-7.6c-6.7-4.5-14.8-10-14.2-16.8c0.3-3.3,2.5-5.8,3-6.3
			c2.5-2.6,5.9-3.5,11.7-4.9c0.8-0.2,1.9-0.5,3.4-0.7c14.7-2.7,30.8-0.8,30.8-0.8c3.2,0.4,6.6,0.9,10.2,1.7c2.8,0.6,5.5,1.3,7.9,2
			c2.9,0.7,5.2,2.7,6,5.4c0.9,3.1-0.6,5.7-0.8,6.2c-3.7,6.7-8,11.2-11,13.8c-3.6,3.2-7.8,6.9-14.1,8.3c-3.9,0.9-7.8,0.7-8.7,0.7
			C434.3,484.1,431.8,483.9,428.5,483.2z"/>
		<circle class="st4" cx="312.3" cy="336.7" r="17"/>
		<circle class="st4" cx="270.7" cy="406.6" r="9.9"/>
	</g>
</g>
<g id="testo">
	<g>
		<path class="st2" d="M124.4,751.2c-4.9-2.7-8.7-6.3-11.5-11c-2.8-4.7-4.1-9.9-4.1-15.8c0-5.9,1.4-11.1,4.2-15.8
			c2.8-4.7,6.6-8.3,11.5-11c4.9-2.7,10.3-4,16.4-4c4.9,0,9.4,0.9,13.4,2.6c4,1.7,7.5,4.2,10.3,7.4l-7.2,6.8c-4.3-4.7-9.7-7-16-7
			c-4.1,0-7.8,0.9-11,2.7c-3.2,1.8-5.8,4.3-7.6,7.5c-1.8,3.2-2.7,6.8-2.7,10.9c0,4,0.9,7.7,2.7,10.9c1.8,3.2,4.4,5.7,7.6,7.5
			c3.2,1.8,6.9,2.7,11,2.7c6.3,0,11.7-2.4,16-7.1l7.2,6.8c-2.8,3.2-6.2,5.7-10.3,7.4c-4.1,1.7-8.6,2.6-13.5,2.6
			C134.7,755.1,129.2,753.8,124.4,751.2z"/>
		<g>
			<path class="st2" d="M134.7,703.9v-17.1h-11.1v23.7C126.5,707.4,130.3,705,134.7,703.9z"/>
			<path class="st2" d="M123.6,738.1v23.5h11.1v-16.9C130.3,743.6,126.5,741.2,123.6,738.1z"/>
			<path class="st2" d="M141.5,761.6h11.1v-19.4c-3.2,1.9-7,3.1-11.1,3.3V761.6z"/>
			<path class="st2" d="M152.6,686.8h-11.1v16.4c4.1,0.1,7.9,1.3,11.1,3.3V686.8z"/>
		</g>
		<path class="st2" d="M234.4,694.4v59.9h-11.1v-25.7h-31v25.7h-11.1v-59.9h11.1v24.7h31v-24.7H234.4z"/>
		<path class="st2" d="M256.4,694.4h11.1v59.9h-11.1V694.4z"/>
		<path class="st2" d="M342.9,694.4v59.9h-11.1v-25.7h-31v25.7h-11.1v-59.9h11.1v24.7h31v-24.7H342.9z"/>
		<path class="st2" d="M371.4,748.2c-4.6-4.6-6.9-11.3-6.9-20v-33.8h11.1v33.3c0,11.7,5.1,17.6,15.2,17.6c10.1,0,15.1-5.9,15.1-17.6
			v-33.3h10.9v33.8c0,8.7-2.3,15.3-6.9,20c-4.6,4.6-11,7-19.3,7C382.4,755.1,376,752.8,371.4,748.2z"/>
		<path class="st2" d="M475.9,740.4H446l-5.9,13.9h-11.5l26.9-59.9h10.9l27,59.9h-11.6L475.9,740.4z M472.3,731.7L461,705.5
			l-11.2,26.2H472.3z"/>
		<path class="st2" d="M560.3,694.4v59.9h-11.1v-25.7h-31v25.7h-11.1v-59.9h11.1v24.7h31v-24.7H560.3z"/>
		<path class="st2" d="M588.8,748.2c-4.6-4.6-6.9-11.3-6.9-20v-33.8H593v33.3c0,11.7,5.1,17.6,15.2,17.6c10.1,0,15.1-5.9,15.1-17.6
			v-33.3h10.9v33.8c0,8.7-2.3,15.3-6.9,20c-4.6,4.6-11,7-19.3,7C599.9,755.1,593.4,752.8,588.8,748.2z"/>
		<path class="st2" d="M693.4,740.4h-29.9l-5.9,13.9h-11.5l26.9-59.9H684l27,59.9h-11.6L693.4,740.4z M689.7,731.7l-11.3-26.2
			l-11.2,26.2H689.7z"/>
	</g>
</g>
</svg>
